<svg width="12" height="12" viewBox="0 0 12 12" fill="none" xmlns="http://www.w3.org/2000/svg">
<path fill-rule="evenodd" clip-rule="evenodd" d="M7.95004 3.86248C7.99977 3.77635 8.08167 3.7135 8.17774 3.68777C8.2738 3.66203 8.37616 3.6755 8.46229 3.72523C8.86145 3.95523 9.19301 4.28628 9.42363 4.68508C9.65424 5.08389 9.77577 5.53639 9.776 5.99708C9.77623 6.45776 9.65514 6.91038 9.42492 7.30942C9.19471 7.70846 8.86347 8.03984 8.46454 8.27023C8.37871 8.3168 8.2781 8.32805 8.1841 8.3016C8.0901 8.27515 8.01013 8.21307 7.96119 8.12857C7.91225 8.04407 7.8982 7.94381 7.92203 7.84912C7.94585 7.75442 8.00568 7.67275 8.08879 7.62148C8.3734 7.45663 8.60964 7.21982 8.7738 6.93481C8.93796 6.64981 9.02426 6.32663 9.02404 5.99773C9.0239 5.66873 8.93719 5.34556 8.77264 5.06068C8.60808 4.7758 8.37146 4.53923 8.08654 4.37473C8.00041 4.325 7.93756 4.24309 7.91183 4.14703C7.88609 4.05096 7.89956 3.94861 7.94929 3.86248H7.95004Z" fill="white"/>
<path fill-rule="evenodd" clip-rule="evenodd" d="M8.62495 1.75498C8.64549 1.71022 8.67464 1.66993 8.71074 1.63643C8.74684 1.60293 8.78919 1.57687 8.83536 1.55974C8.88154 1.5426 8.93064 1.53473 8.97985 1.53658C9.02907 1.53842 9.07744 1.54994 9.1222 1.57048C9.97027 1.95998 10.6887 2.58472 11.1922 3.37048C11.6971 4.15568 11.9655 5.06949 11.9655 6.00298C11.9655 6.93648 11.6971 7.85029 11.1922 8.63548C10.6887 9.42125 9.97027 10.046 9.1222 10.4355C9.0318 10.477 8.92862 10.4808 8.83537 10.4462C8.74212 10.4116 8.66643 10.3414 8.62495 10.251C8.58348 10.1606 8.57962 10.0574 8.61422 9.96415C8.64882 9.87089 8.71905 9.79521 8.80945 9.75373C9.52783 9.4273 10.1352 8.89813 10.557 8.23123C10.9823 7.56609 11.2082 6.79302 11.2079 6.00351C11.2077 5.214 10.9812 4.44109 10.5555 3.77623C10.1284 3.11106 9.51925 2.5826 8.80045 2.25373C8.75569 2.2332 8.7154 2.20405 8.6819 2.16795C8.6484 2.13185 8.62234 2.0895 8.60521 2.04332C8.58808 1.99715 8.58021 1.94805 8.58205 1.89883C8.58389 1.84962 8.59541 1.80125 8.61595 1.75648L8.62495 1.75498Z" fill="white"/>
<path d="M3 3.75001L5.3775 1.67251C5.43171 1.62514 5.49841 1.59438 5.56963 1.58389C5.64085 1.57341 5.71359 1.58365 5.77915 1.61338C5.84471 1.64312 5.90032 1.6911 5.93935 1.75159C5.97838 1.81208 5.99918 1.88252 5.99925 1.95451V10.0545C5.99918 10.1265 5.97838 10.197 5.93935 10.2574C5.90032 10.3179 5.84471 10.3659 5.77915 10.3956C5.71359 10.4254 5.64085 10.4356 5.56963 10.4251C5.49841 10.4146 5.43171 10.3839 5.3775 10.3365L3 8.25901H1.125C0.826631 8.25901 0.540483 8.14049 0.329505 7.92951C0.118526 7.71853 0 7.43238 0 7.13401L0 4.88401C0 4.58565 0.118526 4.2995 0.329505 4.08852C0.540483 3.87754 0.826631 3.75901 1.125 3.75901H3V3.75001Z" fill="white"/>
</svg>
