<svg width="9" height="9" viewBox="0 0 9 9" fill="none" xmlns="http://www.w3.org/2000/svg">
<path d="M4.50006 1.33287e-05C4.34819 1.33287e-05 4.19819 0.0226356 4.05456 0.0586071C3.97056 0.0798996 3.88956 0.107863 3.80856 0.140638C3.77744 0.153392 3.7456 0.161391 3.71489 0.175795C3.70214 0.181731 3.69239 0.193022 3.67975 0.199232C3.60355 0.23695 3.52896 0.280622 3.45711 0.328138C3.44699 0.334663 3.43195 0.33316 3.42194 0.339857C3.40082 0.354347 3.38406 0.371428 3.36336 0.386713C3.30452 0.428938 3.24276 0.467713 3.18756 0.515638C3.13724 0.560901 3.09404 0.617788 3.04694 0.667963C2.88752 0.831426 2.74934 1.00438 2.63676 1.20706C2.44349 1.54584 2.29919 1.92725 2.23836 2.32033C2.209 2.31414 2.18207 2.31193 2.15631 2.32033C1.9594 2.38445 1.91087 2.75851 2.03912 3.15234C2.11439 3.38345 2.2396 3.5654 2.36725 3.66796C2.53874 4.33464 2.90189 4.89039 3.37506 5.23839V5.62501L3.00006 6.00001L2.25006 6.37501C1.64357 6.67539 1.03941 6.97689 0.433635 7.27726C0.0979617 7.47976 -0.031927 7.87726 6.0465e-05 8.25001C0.0156845 8.48476 -0.0691195 8.78514 0.164123 8.94151C0.38571 9.05551 0.650085 8.98126 0.890685 9.00001C1.59441 8.99964 2.29634 9.00001 3.00006 9.00001C4.00094 9.00039 4.99919 9.00001 6.00006 9.00001C6.88769 9.00001 7.77268 9.00151 8.66031 9.00001C8.94831 8.97976 9.02818 8.67564 9.00006 8.43751C9.00531 8.08801 9.02593 7.69651 8.75406 7.42951C8.53206 7.20376 8.21631 7.11451 7.94556 6.96076C7.54768 6.76389 7.14756 6.57189 6.75006 6.37501L6.00006 6.00001L5.62506 5.62501V5.23839C6.09831 4.89039 6.46131 4.33464 6.63306 3.66796C6.76056 3.56536 6.88581 3.38341 6.96081 3.15234C7.08906 2.75851 7.04068 2.38445 6.84381 2.32033C6.81794 2.31193 6.79131 2.31414 6.76169 2.32033C6.70094 1.92725 6.55656 1.54584 6.36344 1.20706C6.25094 1.00438 6.11256 0.831426 5.95319 0.667963C5.90594 0.617788 5.86281 0.560901 5.81256 0.515638C5.81031 0.513576 5.80319 0.517701 5.80094 0.515638C5.65394 0.384426 5.49081 0.283536 5.32056 0.199232C5.27744 0.17815 5.23544 0.15853 5.19156 0.140638C5.16006 0.127885 5.12969 0.116541 5.09781 0.105482C5.00219 0.0723021 4.90431 0.0403971 4.80456 0.0234508C4.79706 0.022174 4.78881 0.0246313 4.78131 0.0234508C4.68794 0.00877183 4.59569 -0.00101792 4.50006 1.33287e-05Z" fill="white"/>
</svg>
